<svg xmlns="http://www.w3.org/2000/svg" width="256" height="256" viewBox="20 105 220 70">
  <rect width="100%" height="100%" fill="#fafafa"/>
  <!-- foggy cloud -->
  <path d="M40 120
           C 50 90, 90 90, 100 115
           C 130 100, 160 110, 165 135
           C 190 135, 205 150, 205 165
           C 190 175, 170 180, 150 175
           C 135 190, 100 190, 85 175
           C 60 185, 40 175, 35 160
           C 25 145, 30 130, 40 120
           Z"
        fill="none" stroke="#111" stroke-width="2" stroke-linejoin="round"/>
  <!-- arrow to clear block -->
  <defs>
    <marker id="arrow" viewBox="0 0 10 10" refX="7" refY="5"
            markerWidth="6" markerHeight="6" orient="auto-start-reverse">
      <path d="M0 0 L10 5 L0 10 z" fill="#111" />
    </marker>
  </defs>
  <line x1="115" y1="145" x2="210" y2="145" stroke="#111" stroke-width="1.5" marker-end="url(#arrow)"/>
  <!-- clear rectangle -->
  <rect x="185" y="110" width="40" height="70" fill="none" stroke="#111" stroke-width="2"/>
</svg>